ISO-10303-21;
HEADER;
/* Generated by software containing ST-Developer
 * from STEP Tools, Inc. (www.steptools.com) 
 */

FILE_DESCRIPTION(
/* description */ (''),
/* implementation_level */ '2;1');

FILE_NAME(
/* name */ 'Component27.step',
/* time_stamp */ '2026-07-27T19:50:49+03:00',
/* author */ (''),
/* organization */ (''),
/* preprocessor_version */ 'ST-DEVELOPER v20.1',
/* originating_system */ 'Autodesk Translation Framework v15.8.0.0',
/* authorisation */ '');

FILE_SCHEMA (('AUTOMOTIVE_DESIGN { 1 0 10303 214 3 1 1 }'));
ENDSEC;

DATA;
#10=MECHANICAL_DESIGN_GEOMETRIC_PRESENTATION_REPRESENTATION('',(#13),#1222);
#11=SHAPE_REPRESENTATION_RELATIONSHIP('SRR','None',#1229,#12);
#12=ADVANCED_BREP_SHAPE_REPRESENTATION('',(#14),#1221);
#13=STYLED_ITEM('',(#1238),#14);
#14=MANIFOLD_SOLID_BREP('Body1',#682);
#15=FACE_BOUND('',#114,.T.);
#16=FACE_BOUND('',#116,.T.);
#17=FACE_BOUND('',#117,.T.);
#18=FACE_BOUND('',#118,.T.);
#19=FACE_BOUND('',#119,.T.);
#20=FACE_BOUND('',#121,.T.);
#21=FACE_BOUND('',#123,.T.);
#22=FACE_BOUND('',#124,.T.);
#23=FACE_BOUND('',#125,.T.);
#24=FACE_BOUND('',#126,.T.);
#25=FACE_BOUND('',#128,.T.);
#26=FACE_BOUND('',#129,.T.);
#27=FACE_BOUND('',#130,.T.);
#28=FACE_BOUND('',#131,.T.);
#29=FACE_BOUND('',#133,.T.);
#30=FACE_BOUND('',#134,.T.);
#31=FACE_BOUND('',#135,.T.);
#32=FACE_BOUND('',#136,.T.);
#33=PLANE('',#787);
#34=PLANE('',#788);
#35=PLANE('',#789);
#36=PLANE('',#790);
#37=PLANE('',#791);
#38=PLANE('',#792);
#39=CIRCLE('',#707,1.5);
#40=CIRCLE('',#710,1.5);
#41=CIRCLE('',#722,1.5);
#42=CIRCLE('',#725,1.5);
#43=CIRCLE('',#741,1.5);
#44=CIRCLE('',#744,1.5);
#45=CIRCLE('',#748,1.5);
#46=CIRCLE('',#750,1.5);
#47=CIRCLE('',#753,1.5);
#48=CIRCLE('',#755,1.5);
#49=CIRCLE('',#758,1.5);
#50=CIRCLE('',#764,1.5);
#51=CIRCLE('',#773,1.5);
#52=CIRCLE('',#778,1.5);
#53=CIRCLE('',#781,1.5);
#54=CIRCLE('',#782,1.5);
#55=CIRCLE('',#784,1.5);
#56=CIRCLE('',#786,1.5);
#57=FACE_OUTER_BOUND('',#88,.T.);
#58=FACE_OUTER_BOUND('',#89,.T.);
#59=FACE_OUTER_BOUND('',#90,.T.);
#60=FACE_OUTER_BOUND('',#91,.T.);
#61=FACE_OUTER_BOUND('',#92,.T.);
#62=FACE_OUTER_BOUND('',#93,.T.);
#63=FACE_OUTER_BOUND('',#94,.T.);
#64=FACE_OUTER_BOUND('',#95,.T.);
#65=FACE_OUTER_BOUND('',#96,.T.);
#66=FACE_OUTER_BOUND('',#97,.T.);
#67=FACE_OUTER_BOUND('',#98,.T.);
#68=FACE_OUTER_BOUND('',#99,.T.);
#69=FACE_OUTER_BOUND('',#100,.T.);
#70=FACE_OUTER_BOUND('',#101,.T.);
#71=FACE_OUTER_BOUND('',#102,.T.);
#72=FACE_OUTER_BOUND('',#103,.T.);
#73=FACE_OUTER_BOUND('',#104,.T.);
#74=FACE_OUTER_BOUND('',#105,.T.);
#75=FACE_OUTER_BOUND('',#106,.T.);
#76=FACE_OUTER_BOUND('',#107,.T.);
#77=FACE_OUTER_BOUND('',#108,.T.);
#78=FACE_OUTER_BOUND('',#109,.T.);
#79=FACE_OUTER_BOUND('',#110,.T.);
#80=FACE_OUTER_BOUND('',#111,.T.);
#81=FACE_OUTER_BOUND('',#112,.T.);
#82=FACE_OUTER_BOUND('',#113,.T.);
#83=FACE_OUTER_BOUND('',#115,.T.);
#84=FACE_OUTER_BOUND('',#120,.T.);
#85=FACE_OUTER_BOUND('',#122,.T.);
#86=FACE_OUTER_BOUND('',#127,.T.);
#87=FACE_OUTER_BOUND('',#132,.T.);
#88=EDGE_LOOP('',(#420,#421,#422,#423,#424,#425,#426,#427,#428,#429));
#89=EDGE_LOOP('',(#430,#431,#432,#433,#434));
#90=EDGE_LOOP('',(#435,#436,#437,#438,#439));
#91=EDGE_LOOP('',(#440,#441,#442,#443,#444,#445,#446,#447));
#92=EDGE_LOOP('',(#448,#449,#450,#451,#452));
#93=EDGE_LOOP('',(#453,#454,#455,#456,#457,#458,#459));
#94=EDGE_LOOP('',(#460,#461,#462,#463,#464,#465,#466,#467,#468,#469));
#95=EDGE_LOOP('',(#470,#471,#472,#473,#474));
#96=EDGE_LOOP('',(#475,#476,#477,#478,#479));
#97=EDGE_LOOP('',(#480,#481,#482,#483,#484,#485));
#98=EDGE_LOOP('',(#486,#487,#488,#489,#490,#491));
#99=EDGE_LOOP('',(#492,#493,#494,#495,#496,#497,#498,#499));
#100=EDGE_LOOP('',(#500,#501,#502,#503,#504,#505));
#101=EDGE_LOOP('',(#506,#507,#508,#509,#510,#511));
#102=EDGE_LOOP('',(#512,#513,#514,#515,#516,#517,#518,#519));
#103=EDGE_LOOP('',(#520,#521,#522,#523,#524,#525));
#104=EDGE_LOOP('',(#526,#527,#528,#529,#530,#531,#532,#533));
#105=EDGE_LOOP('',(#534,#535,#536,#537,#538,#539));
#106=EDGE_LOOP('',(#540,#541,#542,#543,#544,#545,#546,#547));
#107=EDGE_LOOP('',(#548,#549,#550,#551,#552,#553));
#108=EDGE_LOOP('',(#554,#555,#556,#557,#558,#559,#560));
#109=EDGE_LOOP('',(#561,#562,#563,#564,#565,#566,#567,#568));
#110=EDGE_LOOP('',(#569,#570,#571,#572));
#111=EDGE_LOOP('',(#573,#574,#575,#576,#577,#578));
#112=EDGE_LOOP('',(#579,#580,#581,#582,#583));
#113=EDGE_LOOP('',(#584,#585,#586,#587));
#114=EDGE_LOOP('',(#588));
#115=EDGE_LOOP('',(#589,#590,#591,#592));
#116=EDGE_LOOP('',(#593));
#117=EDGE_LOOP('',(#594));
#118=EDGE_LOOP('',(#595));
#119=EDGE_LOOP('',(#596));
#120=EDGE_LOOP('',(#597,#598,#599,#600));
#121=EDGE_LOOP('',(#601));
#122=EDGE_LOOP('',(#602,#603,#604,#605));
#123=EDGE_LOOP('',(#606));
#124=EDGE_LOOP('',(#607));
#125=EDGE_LOOP('',(#608));
#126=EDGE_LOOP('',(#609));
#127=EDGE_LOOP('',(#610,#611,#612,#613));
#128=EDGE_LOOP('',(#614));
#129=EDGE_LOOP('',(#615));
#130=EDGE_LOOP('',(#616));
#131=EDGE_LOOP('',(#617));
#132=EDGE_LOOP('',(#618,#619,#620,#621));
#133=EDGE_LOOP('',(#622));
#134=EDGE_LOOP('',(#623));
#135=EDGE_LOOP('',(#624));
#136=EDGE_LOOP('',(#625));
#137=LINE('',#1036,#174);
#138=LINE('',#1048,#175);
#139=LINE('',#1054,#176);
#140=LINE('',#1062,#177);
#141=LINE('',#1074,#178);
#142=LINE('',#1080,#179);
#143=LINE('',#1096,#180);
#144=LINE('',#1108,#181);
#145=LINE('',#1114,#182);
#146=LINE('',#1119,#183);
#147=LINE('',#1123,#184);
#148=LINE('',#1126,#185);
#149=LINE('',#1129,#186);
#150=LINE('',#1133,#187);
#151=LINE('',#1136,#188);
#152=LINE('',#1140,#189);
#153=LINE('',#1147,#190);
#154=LINE('',#1153,#191);
#155=LINE('',#1163,#192);
#156=LINE('',#1169,#193);
#157=LINE('',#1175,#194);
#158=LINE('',#1178,#195);
#159=LINE('',#1183,#196);
#160=LINE('',#1188,#197);
#161=LINE('',#1192,#198);
#162=LINE('',#1196,#199);
#163=LINE('',#1198,#200);
#164=LINE('',#1200,#201);
#165=LINE('',#1201,#202);
#166=LINE('',#1204,#203);
#167=LINE('',#1206,#204);
#168=LINE('',#1207,#205);
#169=LINE('',#1210,#206);
#170=LINE('',#1212,#207);
#171=LINE('',#1213,#208);
#172=LINE('',#1215,#209);
#173=LINE('',#1216,#210);
#174=VECTOR('',#803,1.5);
#175=VECTOR('',#818,1.5);
#176=VECTOR('',#827,1.5);
#177=VECTOR('',#836,1.5);
#178=VECTOR('',#851,1.5);
#179=VECTOR('',#860,1.5);
#180=VECTOR('',#877,1.5);
#181=VECTOR('',#892,1.5);
#182=VECTOR('',#901,1.5);
#183=VECTOR('',#908,1.5);
#184=VECTOR('',#913,1.5);
#185=VECTOR('',#918,1.5);
#186=VECTOR('',#921,1.5);
#187=VECTOR('',#926,1.5);
#188=VECTOR('',#931,1.5);
#189=VECTOR('',#936,1.5);
#190=VECTOR('',#943,1.5);
#191=VECTOR('',#950,1.5);
#192=VECTOR('',#963,1.5);
#193=VECTOR('',#970,1.5);
#194=VECTOR('',#979,1.5);
#195=VECTOR('',#984,1.5);
#196=VECTOR('',#989,1.5);
#197=VECTOR('',#996,1.5);
#198=VECTOR('',#1001,1.5);
#199=VECTOR('',#1004,10.);
#200=VECTOR('',#1005,10.);
#201=VECTOR('',#1006,10.);
#202=VECTOR('',#1007,10.);
#203=VECTOR('',#1010,10.);
#204=VECTOR('',#1011,10.);
#205=VECTOR('',#1012,10.);
#206=VECTOR('',#1015,10.);
#207=VECTOR('',#1016,10.);
#208=VECTOR('',#1017,10.);
#209=VECTOR('',#1020,10.);
#210=VECTOR('',#1021,10.);
#211=ELLIPSE('',#697,2.12132034355965,1.5);
#212=ELLIPSE('',#698,2.12132034355965,1.5);
#213=ELLIPSE('',#699,2.12132034355965,1.5);
#214=ELLIPSE('',#700,2.12132034355965,1.5);
#215=ELLIPSE('',#701,2.12132034355965,1.5);
#216=ELLIPSE('',#702,2.12132034355965,1.5);
#217=ELLIPSE('',#703,2.12132034355965,1.5);
#218=ELLIPSE('',#704,2.12132034355965,1.5);
#219=ELLIPSE('',#706,2.12132034355965,1.5);
#220=ELLIPSE('',#708,2.12132034355965,1.5);
#221=ELLIPSE('',#711,2.12132034355965,1.5);
#222=ELLIPSE('',#712,2.12132034355965,1.5);
#223=ELLIPSE('',#714,2.12132034355965,1.5);
#224=ELLIPSE('',#715,2.12132034355965,1.5);
#225=ELLIPSE('',#716,2.12132034355965,1.5);
#226=ELLIPSE('',#717,2.12132034355965,1.5);
#227=ELLIPSE('',#718,2.12132034355965,1.5);
#228=ELLIPSE('',#719,2.12132034355965,1.5);
#229=ELLIPSE('',#721,2.12132034355965,1.5);
#230=ELLIPSE('',#723,2.12132034355965,1.5);
#231=ELLIPSE('',#726,2.12132034355965,1.5);
#232=ELLIPSE('',#727,2.12132034355965,1.5);
#233=ELLIPSE('',#728,2.12132034355965,1.5);
#234=ELLIPSE('',#729,2.12132034355965,1.5);
#235=ELLIPSE('',#731,2.12132034355965,1.5);
#236=ELLIPSE('',#732,2.12132034355965,1.5);
#237=ELLIPSE('',#733,2.12132034355965,1.5);
#238=ELLIPSE('',#734,2.12132034355965,1.5);
#239=ELLIPSE('',#735,2.12132034355965,1.5);
#240=ELLIPSE('',#736,2.12132034355965,1.5);
#241=ELLIPSE('',#737,2.12132034355965,1.5);
#242=ELLIPSE('',#738,2.12132034355965,1.5);
#243=ELLIPSE('',#740,2.12132034355965,1.5);
#244=ELLIPSE('',#742,2.12132034355965,1.5);
#245=ELLIPSE('',#745,2.12132034355965,1.5);
#246=ELLIPSE('',#746,2.12132034355965,1.5);
#247=ELLIPSE('',#760,2.12132034355965,1.5);
#248=ELLIPSE('',#761,2.12132034355965,1.5);
#249=ELLIPSE('',#762,2.12132034355965,1.5);
#250=ELLIPSE('',#765,2.12132034355965,1.5);
#251=ELLIPSE('',#766,2.12132034355965,1.5);
#252=ELLIPSE('',#767,2.12132034355965,1.5);
#253=ELLIPSE('',#769,2.12132034355965,1.5);
#254=ELLIPSE('',#770,2.12132034355965,1.5);
#255=ELLIPSE('',#771,2.12132034355965,1.5);
#256=ELLIPSE('',#774,2.12132034355965,1.5);
#257=ELLIPSE('',#775,2.12132034355965,1.5);
#258=ELLIPSE('',#776,2.12132034355965,1.5);
#259=VERTEX_POINT('',#1028);
#260=VERTEX_POINT('',#1029);
#261=VERTEX_POINT('',#1031);
#262=VERTEX_POINT('',#1033);
#263=VERTEX_POINT('',#1035);
#264=VERTEX_POINT('',#1037);
#265=VERTEX_POINT('',#1039);
#266=VERTEX_POINT('',#1041);
#267=VERTEX_POINT('',#1047);
#268=VERTEX_POINT('',#1052);
#269=VERTEX_POINT('',#1058);
#270=VERTEX_POINT('',#1059);
#271=VERTEX_POINT('',#1061);
#272=VERTEX_POINT('',#1063);
#273=VERTEX_POINT('',#1065);
#274=VERTEX_POINT('',#1067);
#275=VERTEX_POINT('',#1073);
#276=VERTEX_POINT('',#1078);
#277=VERTEX_POINT('',#1081);
#278=VERTEX_POINT('',#1084);
#279=VERTEX_POINT('',#1088);
#280=VERTEX_POINT('',#1089);
#281=VERTEX_POINT('',#1091);
#282=VERTEX_POINT('',#1093);
#283=VERTEX_POINT('',#1095);
#284=VERTEX_POINT('',#1097);
#285=VERTEX_POINT('',#1099);
#286=VERTEX_POINT('',#1101);
#287=VERTEX_POINT('',#1107);
#288=VERTEX_POINT('',#1112);
#289=VERTEX_POINT('',#1118);
#290=VERTEX_POINT('',#1122);
#291=VERTEX_POINT('',#1128);
#292=VERTEX_POINT('',#1132);
#293=VERTEX_POINT('',#1138);
#294=VERTEX_POINT('',#1142);
#295=VERTEX_POINT('',#1143);
#296=VERTEX_POINT('',#1145);
#297=VERTEX_POINT('',#1150);
#298=VERTEX_POINT('',#1152);
#299=VERTEX_POINT('',#1158);
#300=VERTEX_POINT('',#1159);
#301=VERTEX_POINT('',#1161);
#302=VERTEX_POINT('',#1166);
#303=VERTEX_POINT('',#1168);
#304=VERTEX_POINT('',#1174);
#305=VERTEX_POINT('',#1180);
#306=VERTEX_POINT('',#1182);
#307=VERTEX_POINT('',#1186);
#308=VERTEX_POINT('',#1190);
#309=VERTEX_POINT('',#1194);
#310=VERTEX_POINT('',#1195);
#311=VERTEX_POINT('',#1197);
#312=VERTEX_POINT('',#1199);
#313=VERTEX_POINT('',#1203);
#314=VERTEX_POINT('',#1205);
#315=VERTEX_POINT('',#1209);
#316=VERTEX_POINT('',#1211);
#317=EDGE_CURVE('',#259,#260,#211,.T.);
#318=EDGE_CURVE('',#261,#259,#212,.T.);
#319=EDGE_CURVE('',#262,#261,#213,.T.);
#320=EDGE_CURVE('',#262,#263,#137,.T.);
#321=EDGE_CURVE('',#264,#263,#214,.T.);
#322=EDGE_CURVE('',#265,#264,#215,.T.);
#323=EDGE_CURVE('',#266,#265,#216,.T.);
#324=EDGE_CURVE('',#263,#266,#217,.T.);
#325=EDGE_CURVE('',#260,#262,#218,.T.);
#326=EDGE_CURVE('',#263,#265,#219,.T.);
#327=EDGE_CURVE('',#263,#267,#138,.T.);
#328=EDGE_CURVE('',#267,#267,#39,.T.);
#329=EDGE_CURVE('',#265,#263,#220,.T.);
#330=EDGE_CURVE('',#268,#268,#40,.T.);
#331=EDGE_CURVE('',#268,#262,#139,.T.);
#332=EDGE_CURVE('',#259,#262,#221,.T.);
#333=EDGE_CURVE('',#262,#259,#222,.T.);
#334=EDGE_CURVE('',#269,#270,#223,.T.);
#335=EDGE_CURVE('',#269,#271,#140,.T.);
#336=EDGE_CURVE('',#272,#271,#224,.T.);
#337=EDGE_CURVE('',#273,#272,#225,.T.);
#338=EDGE_CURVE('',#274,#273,#226,.T.);
#339=EDGE_CURVE('',#271,#274,#227,.T.);
#340=EDGE_CURVE('',#270,#269,#228,.T.);
#341=EDGE_CURVE('',#271,#273,#229,.T.);
#342=EDGE_CURVE('',#271,#275,#141,.T.);
#343=EDGE_CURVE('',#275,#275,#41,.T.);
#344=EDGE_CURVE('',#273,#271,#230,.T.);
#345=EDGE_CURVE('',#276,#276,#42,.T.);
#346=EDGE_CURVE('',#276,#269,#142,.T.);
#347=EDGE_CURVE('',#277,#269,#231,.T.);
#348=EDGE_CURVE('',#270,#277,#232,.T.);
#349=EDGE_CURVE('',#278,#270,#233,.T.);
#350=EDGE_CURVE('',#269,#278,#234,.T.);
#351=EDGE_CURVE('',#279,#280,#235,.T.);
#352=EDGE_CURVE('',#281,#279,#236,.T.);
#353=EDGE_CURVE('',#282,#281,#237,.T.);
#354=EDGE_CURVE('',#282,#283,#143,.T.);
#355=EDGE_CURVE('',#284,#283,#238,.T.);
#356=EDGE_CURVE('',#285,#284,#239,.T.);
#357=EDGE_CURVE('',#286,#285,#240,.T.);
#358=EDGE_CURVE('',#283,#286,#241,.T.);
#359=EDGE_CURVE('',#280,#282,#242,.T.);
#360=EDGE_CURVE('',#283,#285,#243,.T.);
#361=EDGE_CURVE('',#283,#287,#144,.T.);
#362=EDGE_CURVE('',#287,#287,#43,.T.);
#363=EDGE_CURVE('',#285,#283,#244,.T.);
#364=EDGE_CURVE('',#288,#288,#44,.T.);
#365=EDGE_CURVE('',#288,#282,#145,.T.);
#366=EDGE_CURVE('',#279,#282,#245,.T.);
#367=EDGE_CURVE('',#282,#279,#246,.T.);
#368=EDGE_CURVE('',#274,#289,#146,.T.);
#369=EDGE_CURVE('',#289,#289,#45,.T.);
#370=EDGE_CURVE('',#278,#290,#147,.T.);
#371=EDGE_CURVE('',#290,#290,#46,.T.);
#372=EDGE_CURVE('',#286,#264,#148,.T.);
#373=EDGE_CURVE('',#266,#291,#149,.T.);
#374=EDGE_CURVE('',#291,#291,#47,.T.);
#375=EDGE_CURVE('',#281,#292,#150,.T.);
#376=EDGE_CURVE('',#292,#292,#48,.T.);
#377=EDGE_CURVE('',#261,#280,#151,.T.);
#378=EDGE_CURVE('',#293,#293,#49,.T.);
#379=EDGE_CURVE('',#293,#284,#152,.T.);
#380=EDGE_CURVE('',#294,#295,#247,.T.);
#381=EDGE_CURVE('',#296,#294,#248,.T.);
#382=EDGE_CURVE('',#296,#272,#153,.T.);
#383=EDGE_CURVE('',#295,#296,#249,.T.);
#384=EDGE_CURVE('',#297,#297,#50,.T.);
#385=EDGE_CURVE('',#297,#298,#154,.T.);
#386=EDGE_CURVE('',#294,#298,#250,.T.);
#387=EDGE_CURVE('',#295,#294,#251,.T.);
#388=EDGE_CURVE('',#298,#295,#252,.T.);
#389=EDGE_CURVE('',#299,#300,#253,.T.);
#390=EDGE_CURVE('',#301,#299,#254,.T.);
#391=EDGE_CURVE('',#301,#277,#155,.T.);
#392=EDGE_CURVE('',#300,#301,#255,.T.);
#393=EDGE_CURVE('',#302,#302,#51,.T.);
#394=EDGE_CURVE('',#302,#303,#156,.T.);
#395=EDGE_CURVE('',#299,#303,#256,.T.);
#396=EDGE_CURVE('',#300,#299,#257,.T.);
#397=EDGE_CURVE('',#303,#300,#258,.T.);
#398=EDGE_CURVE('',#300,#304,#157,.T.);
#399=EDGE_CURVE('',#304,#304,#52,.T.);
#400=EDGE_CURVE('',#295,#300,#158,.T.);
#401=EDGE_CURVE('',#305,#305,#53,.T.);
#402=EDGE_CURVE('',#305,#306,#159,.T.);
#403=EDGE_CURVE('',#306,#306,#54,.T.);
#404=EDGE_CURVE('',#307,#307,#55,.T.);
#405=EDGE_CURVE('',#307,#260,#160,.T.);
#406=EDGE_CURVE('',#308,#308,#56,.T.);
#407=EDGE_CURVE('',#308,#295,#161,.T.);
#408=EDGE_CURVE('',#309,#310,#162,.T.);
#409=EDGE_CURVE('',#310,#311,#163,.T.);
#410=EDGE_CURVE('',#312,#311,#164,.T.);
#411=EDGE_CURVE('',#309,#312,#165,.T.);
#412=EDGE_CURVE('',#313,#309,#166,.T.);
#413=EDGE_CURVE('',#314,#312,#167,.T.);
#414=EDGE_CURVE('',#313,#314,#168,.T.);
#415=EDGE_CURVE('',#315,#313,#169,.T.);
#416=EDGE_CURVE('',#316,#314,#170,.T.);
#417=EDGE_CURVE('',#315,#316,#171,.T.);
#418=EDGE_CURVE('',#310,#315,#172,.T.);
#419=EDGE_CURVE('',#311,#316,#173,.T.);
#420=ORIENTED_EDGE('',*,*,#317,.F.);
#421=ORIENTED_EDGE('',*,*,#318,.F.);
#422=ORIENTED_EDGE('',*,*,#319,.F.);
#423=ORIENTED_EDGE('',*,*,#320,.T.);
#424=ORIENTED_EDGE('',*,*,#321,.F.);
#425=ORIENTED_EDGE('',*,*,#322,.F.);
#426=ORIENTED_EDGE('',*,*,#323,.F.);
#427=ORIENTED_EDGE('',*,*,#324,.F.);
#428=ORIENTED_EDGE('',*,*,#320,.F.);
#429=ORIENTED_EDGE('',*,*,#325,.F.);
#430=ORIENTED_EDGE('',*,*,#326,.F.);
#431=ORIENTED_EDGE('',*,*,#327,.T.);
#432=ORIENTED_EDGE('',*,*,#328,.F.);
#433=ORIENTED_EDGE('',*,*,#327,.F.);
#434=ORIENTED_EDGE('',*,*,#329,.F.);
#435=ORIENTED_EDGE('',*,*,#330,.F.);
#436=ORIENTED_EDGE('',*,*,#331,.T.);
#437=ORIENTED_EDGE('',*,*,#332,.F.);
#438=ORIENTED_EDGE('',*,*,#333,.F.);
#439=ORIENTED_EDGE('',*,*,#331,.F.);
#440=ORIENTED_EDGE('',*,*,#334,.F.);
#441=ORIENTED_EDGE('',*,*,#335,.T.);
#442=ORIENTED_EDGE('',*,*,#336,.F.);
#443=ORIENTED_EDGE('',*,*,#337,.F.);
#444=ORIENTED_EDGE('',*,*,#338,.F.);
#445=ORIENTED_EDGE('',*,*,#339,.F.);
#446=ORIENTED_EDGE('',*,*,#335,.F.);
#447=ORIENTED_EDGE('',*,*,#340,.F.);
#448=ORIENTED_EDGE('',*,*,#341,.F.);
#449=ORIENTED_EDGE('',*,*,#342,.T.);
#450=ORIENTED_EDGE('',*,*,#343,.F.);
#451=ORIENTED_EDGE('',*,*,#342,.F.);
#452=ORIENTED_EDGE('',*,*,#344,.F.);
#453=ORIENTED_EDGE('',*,*,#345,.F.);
#454=ORIENTED_EDGE('',*,*,#346,.T.);
#455=ORIENTED_EDGE('',*,*,#347,.F.);
#456=ORIENTED_EDGE('',*,*,#348,.F.);
#457=ORIENTED_EDGE('',*,*,#349,.F.);
#458=ORIENTED_EDGE('',*,*,#350,.F.);
#459=ORIENTED_EDGE('',*,*,#346,.F.);
#460=ORIENTED_EDGE('',*,*,#351,.F.);
#461=ORIENTED_EDGE('',*,*,#352,.F.);
#462=ORIENTED_EDGE('',*,*,#353,.F.);
#463=ORIENTED_EDGE('',*,*,#354,.T.);
#464=ORIENTED_EDGE('',*,*,#355,.F.);
#465=ORIENTED_EDGE('',*,*,#356,.F.);
#466=ORIENTED_EDGE('',*,*,#357,.F.);
#467=ORIENTED_EDGE('',*,*,#358,.F.);
#468=ORIENTED_EDGE('',*,*,#354,.F.);
#469=ORIENTED_EDGE('',*,*,#359,.F.);
#470=ORIENTED_EDGE('',*,*,#360,.F.);
#471=ORIENTED_EDGE('',*,*,#361,.T.);
#472=ORIENTED_EDGE('',*,*,#362,.F.);
#473=ORIENTED_EDGE('',*,*,#361,.F.);
#474=ORIENTED_EDGE('',*,*,#363,.F.);
#475=ORIENTED_EDGE('',*,*,#364,.F.);
#476=ORIENTED_EDGE('',*,*,#365,.T.);
#477=ORIENTED_EDGE('',*,*,#366,.F.);
#478=ORIENTED_EDGE('',*,*,#367,.F.);
#479=ORIENTED_EDGE('',*,*,#365,.F.);
#480=ORIENTED_EDGE('',*,*,#339,.T.);
#481=ORIENTED_EDGE('',*,*,#368,.T.);
#482=ORIENTED_EDGE('',*,*,#369,.F.);
#483=ORIENTED_EDGE('',*,*,#368,.F.);
#484=ORIENTED_EDGE('',*,*,#338,.T.);
#485=ORIENTED_EDGE('',*,*,#344,.T.);
#486=ORIENTED_EDGE('',*,*,#350,.T.);
#487=ORIENTED_EDGE('',*,*,#370,.T.);
#488=ORIENTED_EDGE('',*,*,#371,.F.);
#489=ORIENTED_EDGE('',*,*,#370,.F.);
#490=ORIENTED_EDGE('',*,*,#349,.T.);
#491=ORIENTED_EDGE('',*,*,#340,.T.);
#492=ORIENTED_EDGE('',*,*,#358,.T.);
#493=ORIENTED_EDGE('',*,*,#372,.T.);
#494=ORIENTED_EDGE('',*,*,#321,.T.);
#495=ORIENTED_EDGE('',*,*,#326,.T.);
#496=ORIENTED_EDGE('',*,*,#322,.T.);
#497=ORIENTED_EDGE('',*,*,#372,.F.);
#498=ORIENTED_EDGE('',*,*,#357,.T.);
#499=ORIENTED_EDGE('',*,*,#363,.T.);
#500=ORIENTED_EDGE('',*,*,#324,.T.);
#501=ORIENTED_EDGE('',*,*,#373,.T.);
#502=ORIENTED_EDGE('',*,*,#374,.F.);
#503=ORIENTED_EDGE('',*,*,#373,.F.);
#504=ORIENTED_EDGE('',*,*,#323,.T.);
#505=ORIENTED_EDGE('',*,*,#329,.T.);
#506=ORIENTED_EDGE('',*,*,#366,.T.);
#507=ORIENTED_EDGE('',*,*,#353,.T.);
#508=ORIENTED_EDGE('',*,*,#375,.T.);
#509=ORIENTED_EDGE('',*,*,#376,.F.);
#510=ORIENTED_EDGE('',*,*,#375,.F.);
#511=ORIENTED_EDGE('',*,*,#352,.T.);
#512=ORIENTED_EDGE('',*,*,#332,.T.);
#513=ORIENTED_EDGE('',*,*,#319,.T.);
#514=ORIENTED_EDGE('',*,*,#377,.T.);
#515=ORIENTED_EDGE('',*,*,#359,.T.);
#516=ORIENTED_EDGE('',*,*,#367,.T.);
#517=ORIENTED_EDGE('',*,*,#351,.T.);
#518=ORIENTED_EDGE('',*,*,#377,.F.);
#519=ORIENTED_EDGE('',*,*,#318,.T.);
#520=ORIENTED_EDGE('',*,*,#378,.F.);
#521=ORIENTED_EDGE('',*,*,#379,.T.);
#522=ORIENTED_EDGE('',*,*,#355,.T.);
#523=ORIENTED_EDGE('',*,*,#360,.T.);
#524=ORIENTED_EDGE('',*,*,#356,.T.);
#525=ORIENTED_EDGE('',*,*,#379,.F.);
#526=ORIENTED_EDGE('',*,*,#380,.F.);
#527=ORIENTED_EDGE('',*,*,#381,.F.);
#528=ORIENTED_EDGE('',*,*,#382,.T.);
#529=ORIENTED_EDGE('',*,*,#336,.T.);
#530=ORIENTED_EDGE('',*,*,#341,.T.);
#531=ORIENTED_EDGE('',*,*,#337,.T.);
#532=ORIENTED_EDGE('',*,*,#382,.F.);
#533=ORIENTED_EDGE('',*,*,#383,.F.);
#534=ORIENTED_EDGE('',*,*,#384,.F.);
#535=ORIENTED_EDGE('',*,*,#385,.T.);
#536=ORIENTED_EDGE('',*,*,#386,.F.);
#537=ORIENTED_EDGE('',*,*,#387,.F.);
#538=ORIENTED_EDGE('',*,*,#388,.F.);
#539=ORIENTED_EDGE('',*,*,#385,.F.);
#540=ORIENTED_EDGE('',*,*,#389,.F.);
#541=ORIENTED_EDGE('',*,*,#390,.F.);
#542=ORIENTED_EDGE('',*,*,#391,.T.);
#543=ORIENTED_EDGE('',*,*,#347,.T.);
#544=ORIENTED_EDGE('',*,*,#334,.T.);
#545=ORIENTED_EDGE('',*,*,#348,.T.);
#546=ORIENTED_EDGE('',*,*,#391,.F.);
#547=ORIENTED_EDGE('',*,*,#392,.F.);
#548=ORIENTED_EDGE('',*,*,#393,.F.);
#549=ORIENTED_EDGE('',*,*,#394,.T.);
#550=ORIENTED_EDGE('',*,*,#395,.F.);
#551=ORIENTED_EDGE('',*,*,#396,.F.);
#552=ORIENTED_EDGE('',*,*,#397,.F.);
#553=ORIENTED_EDGE('',*,*,#394,.F.);
#554=ORIENTED_EDGE('',*,*,#395,.T.);
#555=ORIENTED_EDGE('',*,*,#397,.T.);
#556=ORIENTED_EDGE('',*,*,#398,.T.);
#557=ORIENTED_EDGE('',*,*,#399,.F.);
#558=ORIENTED_EDGE('',*,*,#398,.F.);
#559=ORIENTED_EDGE('',*,*,#392,.T.);
#560=ORIENTED_EDGE('',*,*,#390,.T.);
#561=ORIENTED_EDGE('',*,*,#386,.T.);
#562=ORIENTED_EDGE('',*,*,#388,.T.);
#563=ORIENTED_EDGE('',*,*,#400,.T.);
#564=ORIENTED_EDGE('',*,*,#396,.T.);
#565=ORIENTED_EDGE('',*,*,#389,.T.);
#566=ORIENTED_EDGE('',*,*,#400,.F.);
#567=ORIENTED_EDGE('',*,*,#383,.T.);
#568=ORIENTED_EDGE('',*,*,#381,.T.);
#569=ORIENTED_EDGE('',*,*,#401,.F.);
#570=ORIENTED_EDGE('',*,*,#402,.T.);
#571=ORIENTED_EDGE('',*,*,#403,.F.);
#572=ORIENTED_EDGE('',*,*,#402,.F.);
#573=ORIENTED_EDGE('',*,*,#404,.F.);
#574=ORIENTED_EDGE('',*,*,#405,.T.);
#575=ORIENTED_EDGE('',*,*,#325,.T.);
#576=ORIENTED_EDGE('',*,*,#333,.T.);
#577=ORIENTED_EDGE('',*,*,#317,.T.);
#578=ORIENTED_EDGE('',*,*,#405,.F.);
#579=ORIENTED_EDGE('',*,*,#406,.F.);
#580=ORIENTED_EDGE('',*,*,#407,.T.);
#581=ORIENTED_EDGE('',*,*,#387,.T.);
#582=ORIENTED_EDGE('',*,*,#380,.T.);
#583=ORIENTED_EDGE('',*,*,#407,.F.);
#584=ORIENTED_EDGE('',*,*,#408,.T.);
#585=ORIENTED_EDGE('',*,*,#409,.T.);
#586=ORIENTED_EDGE('',*,*,#410,.F.);
#587=ORIENTED_EDGE('',*,*,#411,.F.);
#588=ORIENTED_EDGE('',*,*,#403,.T.);
#589=ORIENTED_EDGE('',*,*,#412,.T.);
#590=ORIENTED_EDGE('',*,*,#411,.T.);
#591=ORIENTED_EDGE('',*,*,#413,.F.);
#592=ORIENTED_EDGE('',*,*,#414,.F.);
#593=ORIENTED_EDGE('',*,*,#330,.T.);
#594=ORIENTED_EDGE('',*,*,#345,.T.);
#595=ORIENTED_EDGE('',*,*,#364,.T.);
#596=ORIENTED_EDGE('',*,*,#399,.T.);
#597=ORIENTED_EDGE('',*,*,#415,.T.);
#598=ORIENTED_EDGE('',*,*,#414,.T.);
#599=ORIENTED_EDGE('',*,*,#416,.F.);
#600=ORIENTED_EDGE('',*,*,#417,.F.);
#601=ORIENTED_EDGE('',*,*,#401,.T.);
#602=ORIENTED_EDGE('',*,*,#418,.T.);
#603=ORIENTED_EDGE('',*,*,#417,.T.);
#604=ORIENTED_EDGE('',*,*,#419,.F.);
#605=ORIENTED_EDGE('',*,*,#409,.F.);
#606=ORIENTED_EDGE('',*,*,#328,.T.);
#607=ORIENTED_EDGE('',*,*,#343,.T.);
#608=ORIENTED_EDGE('',*,*,#362,.T.);
#609=ORIENTED_EDGE('',*,*,#406,.T.);
#610=ORIENTED_EDGE('',*,*,#419,.T.);
#611=ORIENTED_EDGE('',*,*,#416,.T.);
#612=ORIENTED_EDGE('',*,*,#413,.T.);
#613=ORIENTED_EDGE('',*,*,#410,.T.);
#614=ORIENTED_EDGE('',*,*,#378,.T.);
#615=ORIENTED_EDGE('',*,*,#384,.T.);
#616=ORIENTED_EDGE('',*,*,#393,.T.);
#617=ORIENTED_EDGE('',*,*,#376,.T.);
#618=ORIENTED_EDGE('',*,*,#418,.F.);
#619=ORIENTED_EDGE('',*,*,#408,.F.);
#620=ORIENTED_EDGE('',*,*,#412,.F.);
#621=ORIENTED_EDGE('',*,*,#415,.F.);
#622=ORIENTED_EDGE('',*,*,#374,.T.);
#623=ORIENTED_EDGE('',*,*,#369,.T.);
#624=ORIENTED_EDGE('',*,*,#371,.T.);
#625=ORIENTED_EDGE('',*,*,#404,.T.);
#626=CYLINDRICAL_SURFACE('',#696,1.5);
#627=CYLINDRICAL_SURFACE('',#705,1.5);
#628=CYLINDRICAL_SURFACE('',#709,1.5);
#629=CYLINDRICAL_SURFACE('',#713,1.5);
#630=CYLINDRICAL_SURFACE('',#720,1.5);
#631=CYLINDRICAL_SURFACE('',#724,1.5);
#632=CYLINDRICAL_SURFACE('',#730,1.5);
#633=CYLINDRICAL_SURFACE('',#739,1.5);
#634=CYLINDRICAL_SURFACE('',#743,1.5);
#635=CYLINDRICAL_SURFACE('',#747,1.5);
#636=CYLINDRICAL_SURFACE('',#749,1.5);
#637=CYLINDRICAL_SURFACE('',#751,1.5);
#638=CYLINDRICAL_SURFACE('',#752,1.5);
#639=CYLINDRICAL_SURFACE('',#754,1.5);
#640=CYLINDRICAL_SURFACE('',#756,1.5);
#641=CYLINDRICAL_SURFACE('',#757,1.5);
#642=CYLINDRICAL_SURFACE('',#759,1.5);
#643=CYLINDRICAL_SURFACE('',#763,1.5);
#644=CYLINDRICAL_SURFACE('',#768,1.5);
#645=CYLINDRICAL_SURFACE('',#772,1.5);
#646=CYLINDRICAL_SURFACE('',#777,1.5);
#647=CYLINDRICAL_SURFACE('',#779,1.5);
#648=CYLINDRICAL_SURFACE('',#780,1.5);
#649=CYLINDRICAL_SURFACE('',#783,1.5);
#650=CYLINDRICAL_SURFACE('',#785,1.5);
#651=ADVANCED_FACE('',(#57),#626,.F.);
#652=ADVANCED_FACE('',(#58),#627,.F.);
#653=ADVANCED_FACE('',(#59),#628,.F.);
#654=ADVANCED_FACE('',(#60),#629,.F.);
#655=ADVANCED_FACE('',(#61),#630,.F.);
#656=ADVANCED_FACE('',(#62),#631,.F.);
#657=ADVANCED_FACE('',(#63),#632,.F.);
#658=ADVANCED_FACE('',(#64),#633,.F.);
#659=ADVANCED_FACE('',(#65),#634,.F.);
#660=ADVANCED_FACE('',(#66),#635,.F.);
#661=ADVANCED_FACE('',(#67),#636,.F.);
#662=ADVANCED_FACE('',(#68),#637,.F.);
#663=ADVANCED_FACE('',(#69),#638,.F.);
#664=ADVANCED_FACE('',(#70),#639,.F.);
#665=ADVANCED_FACE('',(#71),#640,.F.);
#666=ADVANCED_FACE('',(#72),#641,.F.);
#667=ADVANCED_FACE('',(#73),#642,.F.);
#668=ADVANCED_FACE('',(#74),#643,.F.);
#669=ADVANCED_FACE('',(#75),#644,.F.);
#670=ADVANCED_FACE('',(#76),#645,.F.);
#671=ADVANCED_FACE('',(#77),#646,.F.);
#672=ADVANCED_FACE('',(#78),#647,.F.);
#673=ADVANCED_FACE('',(#79),#648,.F.);
#674=ADVANCED_FACE('',(#80),#649,.F.);
#675=ADVANCED_FACE('',(#81),#650,.F.);
#676=ADVANCED_FACE('',(#82,#15),#33,.T.);
#677=ADVANCED_FACE('',(#83,#16,#17,#18,#19),#34,.T.);
#678=ADVANCED_FACE('',(#84,#20),#35,.T.);
#679=ADVANCED_FACE('',(#85,#21,#22,#23,#24),#36,.T.);
#680=ADVANCED_FACE('',(#86,#25,#26,#27,#28),#37,.T.);
#681=ADVANCED_FACE('',(#87,#29,#30,#31,#32),#38,.F.);
#682=CLOSED_SHELL('',(#651,#652,#653,#654,#655,#656,#657,#658,#659,#660,
#661,#662,#663,#664,#665,#666,#667,#668,#669,#670,#671,#672,#673,#674,#675,
#676,#677,#678,#679,#680,#681));
#683=DERIVED_UNIT_ELEMENT(#685,1.);
#684=DERIVED_UNIT_ELEMENT(#1224,-3.);
#685=(
MASS_UNIT()
NAMED_UNIT(*)
SI_UNIT(.KILO.,.GRAM.)
);
#686=DERIVED_UNIT((#683,#684));
#687=MEASURE_REPRESENTATION_ITEM('density measure',
POSITIVE_RATIO_MEASURE(7850.),#686);
#688=PROPERTY_DEFINITION_REPRESENTATION(#693,#690);
#689=PROPERTY_DEFINITION_REPRESENTATION(#694,#691);
#690=REPRESENTATION('material name',(#692),#1221);
#691=REPRESENTATION('density',(#687),#1221);
#692=DESCRIPTIVE_REPRESENTATION_ITEM('Steel','Steel');
#693=PROPERTY_DEFINITION('material property','material name',#1231);
#694=PROPERTY_DEFINITION('material property','density of part',#1231);
#695=AXIS2_PLACEMENT_3D('',#1026,#793,#794);
#696=AXIS2_PLACEMENT_3D('',#1027,#795,#796);
#697=AXIS2_PLACEMENT_3D('',#1030,#797,#798);
#698=AXIS2_PLACEMENT_3D('',#1032,#799,#800);
#699=AXIS2_PLACEMENT_3D('',#1034,#801,#802);
#700=AXIS2_PLACEMENT_3D('',#1038,#804,#805);
#701=AXIS2_PLACEMENT_3D('',#1040,#806,#807);
#702=AXIS2_PLACEMENT_3D('',#1042,#808,#809);
#703=AXIS2_PLACEMENT_3D('',#1043,#810,#811);
#704=AXIS2_PLACEMENT_3D('',#1044,#812,#813);
#705=AXIS2_PLACEMENT_3D('',#1045,#814,#815);
#706=AXIS2_PLACEMENT_3D('',#1046,#816,#817);
#707=AXIS2_PLACEMENT_3D('',#1049,#819,#820);
#708=AXIS2_PLACEMENT_3D('',#1050,#821,#822);
#709=AXIS2_PLACEMENT_3D('',#1051,#823,#824);
#710=AXIS2_PLACEMENT_3D('',#1053,#825,#826);
#711=AXIS2_PLACEMENT_3D('',#1055,#828,#829);
#712=AXIS2_PLACEMENT_3D('',#1056,#830,#831);
#713=AXIS2_PLACEMENT_3D('',#1057,#832,#833);
#714=AXIS2_PLACEMENT_3D('',#1060,#834,#835);
#715=AXIS2_PLACEMENT_3D('',#1064,#837,#838);
#716=AXIS2_PLACEMENT_3D('',#1066,#839,#840);
#717=AXIS2_PLACEMENT_3D('',#1068,#841,#842);
#718=AXIS2_PLACEMENT_3D('',#1069,#843,#844);
#719=AXIS2_PLACEMENT_3D('',#1070,#845,#846);
#720=AXIS2_PLACEMENT_3D('',#1071,#847,#848);
#721=AXIS2_PLACEMENT_3D('',#1072,#849,#850);
#722=AXIS2_PLACEMENT_3D('',#1075,#852,#853);
#723=AXIS2_PLACEMENT_3D('',#1076,#854,#855);
#724=AXIS2_PLACEMENT_3D('',#1077,#856,#857);
#725=AXIS2_PLACEMENT_3D('',#1079,#858,#859);
#726=AXIS2_PLACEMENT_3D('',#1082,#861,#862);
#727=AXIS2_PLACEMENT_3D('',#1083,#863,#864);
#728=AXIS2_PLACEMENT_3D('',#1085,#865,#866);
#729=AXIS2_PLACEMENT_3D('',#1086,#867,#868);
#730=AXIS2_PLACEMENT_3D('',#1087,#869,#870);
#731=AXIS2_PLACEMENT_3D('',#1090,#871,#872);
#732=AXIS2_PLACEMENT_3D('',#1092,#873,#874);
#733=AXIS2_PLACEMENT_3D('',#1094,#875,#876);
#734=AXIS2_PLACEMENT_3D('',#1098,#878,#879);
#735=AXIS2_PLACEMENT_3D('',#1100,#880,#881);
#736=AXIS2_PLACEMENT_3D('',#1102,#882,#883);
#737=AXIS2_PLACEMENT_3D('',#1103,#884,#885);
#738=AXIS2_PLACEMENT_3D('',#1104,#886,#887);
#739=AXIS2_PLACEMENT_3D('',#1105,#888,#889);
#740=AXIS2_PLACEMENT_3D('',#1106,#890,#891);
#741=AXIS2_PLACEMENT_3D('',#1109,#893,#894);
#742=AXIS2_PLACEMENT_3D('',#1110,#895,#896);
#743=AXIS2_PLACEMENT_3D('',#1111,#897,#898);
#744=AXIS2_PLACEMENT_3D('',#1113,#899,#900);
#745=AXIS2_PLACEMENT_3D('',#1115,#902,#903);
#746=AXIS2_PLACEMENT_3D('',#1116,#904,#905);
#747=AXIS2_PLACEMENT_3D('',#1117,#906,#907);
#748=AXIS2_PLACEMENT_3D('',#1120,#909,#910);
#749=AXIS2_PLACEMENT_3D('',#1121,#911,#912);
#750=AXIS2_PLACEMENT_3D('',#1124,#914,#915);
#751=AXIS2_PLACEMENT_3D('',#1125,#916,#917);
#752=AXIS2_PLACEMENT_3D('',#1127,#919,#920);
#753=AXIS2_PLACEMENT_3D('',#1130,#922,#923);
#754=AXIS2_PLACEMENT_3D('',#1131,#924,#925);
#755=AXIS2_PLACEMENT_3D('',#1134,#927,#928);
#756=AXIS2_PLACEMENT_3D('',#1135,#929,#930);
#757=AXIS2_PLACEMENT_3D('',#1137,#932,#933);
#758=AXIS2_PLACEMENT_3D('',#1139,#934,#935);
#759=AXIS2_PLACEMENT_3D('',#1141,#937,#938);
#760=AXIS2_PLACEMENT_3D('',#1144,#939,#940);
#761=AXIS2_PLACEMENT_3D('',#1146,#941,#942);
#762=AXIS2_PLACEMENT_3D('',#1148,#944,#945);
#763=AXIS2_PLACEMENT_3D('',#1149,#946,#947);
#764=AXIS2_PLACEMENT_3D('',#1151,#948,#949);
#765=AXIS2_PLACEMENT_3D('',#1154,#951,#952);
#766=AXIS2_PLACEMENT_3D('',#1155,#953,#954);
#767=AXIS2_PLACEMENT_3D('',#1156,#955,#956);
#768=AXIS2_PLACEMENT_3D('',#1157,#957,#958);
#769=AXIS2_PLACEMENT_3D('',#1160,#959,#960);
#770=AXIS2_PLACEMENT_3D('',#1162,#961,#962);
#771=AXIS2_PLACEMENT_3D('',#1164,#964,#965);
#772=AXIS2_PLACEMENT_3D('',#1165,#966,#967);
#773=AXIS2_PLACEMENT_3D('',#1167,#968,#969);
#774=AXIS2_PLACEMENT_3D('',#1170,#971,#972);
#775=AXIS2_PLACEMENT_3D('',#1171,#973,#974);
#776=AXIS2_PLACEMENT_3D('',#1172,#975,#976);
#777=AXIS2_PLACEMENT_3D('',#1173,#977,#978);
#778=AXIS2_PLACEMENT_3D('',#1176,#980,#981);
#779=AXIS2_PLACEMENT_3D('',#1177,#982,#983);
#780=AXIS2_PLACEMENT_3D('',#1179,#985,#986);
#781=AXIS2_PLACEMENT_3D('',#1181,#987,#988);
#782=AXIS2_PLACEMENT_3D('',#1184,#990,#991);
#783=AXIS2_PLACEMENT_3D('',#1185,#992,#993);
#784=AXIS2_PLACEMENT_3D('',#1187,#994,#995);
#785=AXIS2_PLACEMENT_3D('',#1189,#997,#998);
#786=AXIS2_PLACEMENT_3D('',#1191,#999,#1000);
#787=AXIS2_PLACEMENT_3D('',#1193,#1002,#1003);
#788=AXIS2_PLACEMENT_3D('',#1202,#1008,#1009);
#789=AXIS2_PLACEMENT_3D('',#1208,#1013,#1014);
#790=AXIS2_PLACEMENT_3D('',#1214,#1018,#1019);
#791=AXIS2_PLACEMENT_3D('',#1217,#1022,#1023);
#792=AXIS2_PLACEMENT_3D('',#1218,#1024,#1025);
#793=DIRECTION('axis',(0.,0.,1.));
#794=DIRECTION('refdir',(1.,0.,0.));
#795=DIRECTION('center_axis',(-1.,0.,0.));
#796=DIRECTION('ref_axis',(0.,1.,0.));
#797=DIRECTION('center_axis',(-0.707106781186548,0.,0.707106781186547));
#798=DIRECTION('ref_axis',(-0.707106781186547,0.,-0.707106781186548));
#799=DIRECTION('center_axis',(-0.707106781186548,0.,-0.707106781186547));
#800=DIRECTION('ref_axis',(0.707106781186547,0.,-0.707106781186548));
#801=DIRECTION('center_axis',(-0.707106781186548,0.,-0.707106781186547));
#802=DIRECTION('ref_axis',(0.707106781186547,0.,-0.707106781186548));
#803=DIRECTION('',(-1.,0.,0.));
#804=DIRECTION('center_axis',(0.707106781186548,0.,-0.707106781186548));
#805=DIRECTION('ref_axis',(-0.707106781186547,0.,-0.707106781186547));
#806=DIRECTION('center_axis',(0.707106781186548,0.,-0.707106781186548));
#807=DIRECTION('ref_axis',(-0.707106781186547,0.,-0.707106781186547));
#808=DIRECTION('center_axis',(0.707106781186548,0.,0.707106781186548));
#809=DIRECTION('ref_axis',(0.707106781186547,0.,-0.707106781186547));
#810=DIRECTION('center_axis',(0.707106781186548,0.,0.707106781186548));
#811=DIRECTION('ref_axis',(0.707106781186547,0.,-0.707106781186547));
#812=DIRECTION('center_axis',(-0.707106781186548,0.,0.707106781186547));
#813=DIRECTION('ref_axis',(-0.707106781186547,0.,-0.707106781186548));
#814=DIRECTION('center_axis',(-1.,0.,0.));
#815=DIRECTION('ref_axis',(0.,1.,0.));
#816=DIRECTION('center_axis',(-0.707106781186548,0.,-0.707106781186548));
#817=DIRECTION('ref_axis',(0.707106781186547,0.,-0.707106781186547));
#818=DIRECTION('',(-1.,0.,0.));
#819=DIRECTION('center_axis',(1.,3.35106863855932E-32,0.));
#820=DIRECTION('ref_axis',(0.,1.,0.));
#821=DIRECTION('center_axis',(-0.707106781186548,0.,0.707106781186548));
#822=DIRECTION('ref_axis',(-0.707106781186547,0.,-0.707106781186547));
#823=DIRECTION('center_axis',(-1.,0.,0.));
#824=DIRECTION('ref_axis',(0.,1.,0.));
#825=DIRECTION('center_axis',(-1.,-3.35106863855932E-32,0.));
#826=DIRECTION('ref_axis',(0.,1.,0.));
#827=DIRECTION('',(-1.,0.,0.));
#828=DIRECTION('center_axis',(0.707106781186548,0.,-0.707106781186547));
#829=DIRECTION('ref_axis',(-0.707106781186547,0.,-0.707106781186548));
#830=DIRECTION('center_axis',(0.707106781186548,0.,0.707106781186547));
#831=DIRECTION('ref_axis',(0.707106781186547,0.,-0.707106781186548));
#832=DIRECTION('center_axis',(-1.,0.,0.));
#833=DIRECTION('ref_axis',(0.,1.,0.));
#834=DIRECTION('center_axis',(-0.707106781186548,0.,-0.707106781186548));
#835=DIRECTION('ref_axis',(0.707106781186547,0.,-0.707106781186547));
#836=DIRECTION('',(-1.,0.,0.));
#837=DIRECTION('center_axis',(0.707106781186548,0.,-0.707106781186548));
#838=DIRECTION('ref_axis',(-0.707106781186547,0.,-0.707106781186547));
#839=DIRECTION('center_axis',(0.707106781186548,0.,-0.707106781186548));
#840=DIRECTION('ref_axis',(-0.707106781186547,0.,-0.707106781186547));
#841=DIRECTION('center_axis',(0.707106781186548,0.,0.707106781186548));
#842=DIRECTION('ref_axis',(0.707106781186547,0.,-0.707106781186547));
#843=DIRECTION('center_axis',(0.707106781186548,0.,0.707106781186548));
#844=DIRECTION('ref_axis',(0.707106781186547,0.,-0.707106781186547));
#845=DIRECTION('center_axis',(-0.707106781186548,0.,0.707106781186548));
#846=DIRECTION('ref_axis',(-0.707106781186547,0.,-0.707106781186547));
#847=DIRECTION('center_axis',(-1.,0.,0.));
#848=DIRECTION('ref_axis',(0.,1.,0.));
#849=DIRECTION('center_axis',(-0.707106781186548,0.,-0.707106781186548));
#850=DIRECTION('ref_axis',(0.707106781186547,0.,-0.707106781186547));
#851=DIRECTION('',(-1.,0.,0.));
#852=DIRECTION('center_axis',(1.,3.35106863855932E-32,0.));
#853=DIRECTION('ref_axis',(0.,1.,0.));
#854=DIRECTION('center_axis',(-0.707106781186548,0.,0.707106781186548));
#855=DIRECTION('ref_axis',(-0.707106781186547,0.,-0.707106781186547));
#856=DIRECTION('center_axis',(-1.,0.,0.));
#857=DIRECTION('ref_axis',(0.,1.,0.));
#858=DIRECTION('center_axis',(-1.,-3.35106863855932E-32,0.));
#859=DIRECTION('ref_axis',(0.,1.,0.));
#860=DIRECTION('',(-1.,0.,0.));
#861=DIRECTION('center_axis',(0.707106781186548,0.,-0.707106781186548));
#862=DIRECTION('ref_axis',(-0.707106781186547,0.,-0.707106781186547));
#863=DIRECTION('center_axis',(0.707106781186548,0.,-0.707106781186548));
#864=DIRECTION('ref_axis',(-0.707106781186547,0.,-0.707106781186547));
#865=DIRECTION('center_axis',(0.707106781186548,0.,0.707106781186548));
#866=DIRECTION('ref_axis',(0.707106781186547,0.,-0.707106781186547));
#867=DIRECTION('center_axis',(0.707106781186548,0.,0.707106781186548));
#868=DIRECTION('ref_axis',(0.707106781186547,0.,-0.707106781186547));
#869=DIRECTION('center_axis',(-1.,0.,0.));
#870=DIRECTION('ref_axis',(0.,1.,0.));
#871=DIRECTION('center_axis',(-0.707106781186548,0.,0.707106781186548));
#872=DIRECTION('ref_axis',(-0.707106781186547,0.,-0.707106781186547));
#873=DIRECTION('center_axis',(-0.707106781186548,0.,-0.707106781186548));
#874=DIRECTION('ref_axis',(0.707106781186547,0.,-0.707106781186547));
#875=DIRECTION('center_axis',(-0.707106781186548,0.,-0.707106781186548));
#876=DIRECTION('ref_axis',(0.707106781186547,0.,-0.707106781186547));
#877=DIRECTION('',(-1.,0.,0.));
#878=DIRECTION('center_axis',(0.707106781186548,0.,-0.707106781186548));
#879=DIRECTION('ref_axis',(-0.707106781186547,0.,-0.707106781186547));
#880=DIRECTION('center_axis',(0.707106781186548,0.,-0.707106781186548));
#881=DIRECTION('ref_axis',(-0.707106781186547,0.,-0.707106781186547));
#882=DIRECTION('center_axis',(0.707106781186548,0.,0.707106781186548));
#883=DIRECTION('ref_axis',(0.707106781186547,0.,-0.707106781186547));
#884=DIRECTION('center_axis',(0.707106781186548,0.,0.707106781186548));
#885=DIRECTION('ref_axis',(0.707106781186547,0.,-0.707106781186547));
#886=DIRECTION('center_axis',(-0.707106781186548,0.,0.707106781186548));
#887=DIRECTION('ref_axis',(-0.707106781186547,0.,-0.707106781186547));
#888=DIRECTION('center_axis',(-1.,0.,0.));
#889=DIRECTION('ref_axis',(0.,1.,0.));
#890=DIRECTION('center_axis',(-0.707106781186548,0.,-0.707106781186548));
#891=DIRECTION('ref_axis',(0.707106781186547,0.,-0.707106781186547));
#892=DIRECTION('',(-1.,0.,0.));
#893=DIRECTION('center_axis',(1.,3.35106863855932E-32,0.));
#894=DIRECTION('ref_axis',(0.,1.,0.));
#895=DIRECTION('center_axis',(-0.707106781186548,0.,0.707106781186548));
#896=DIRECTION('ref_axis',(-0.707106781186547,0.,-0.707106781186547));
#897=DIRECTION('center_axis',(-1.,0.,0.));
#898=DIRECTION('ref_axis',(0.,1.,0.));
#899=DIRECTION('center_axis',(-1.,-3.35106863855932E-32,0.));
#900=DIRECTION('ref_axis',(0.,1.,0.));
#901=DIRECTION('',(-1.,0.,0.));
#902=DIRECTION('center_axis',(0.707106781186548,0.,-0.707106781186548));
#903=DIRECTION('ref_axis',(-0.707106781186547,0.,-0.707106781186547));
#904=DIRECTION('center_axis',(0.707106781186548,0.,0.707106781186548));
#905=DIRECTION('ref_axis',(0.707106781186547,0.,-0.707106781186547));
#906=DIRECTION('center_axis',(0.,0.,-1.));
#907=DIRECTION('ref_axis',(-1.,0.,0.));
#908=DIRECTION('',(0.,0.,-1.));
#909=DIRECTION('center_axis',(-1.10521522747907E-16,3.46763768166515E-17,
1.));
#910=DIRECTION('ref_axis',(-1.,0.,0.));
#911=DIRECTION('center_axis',(0.,0.,-1.));
#912=DIRECTION('ref_axis',(-1.,0.,0.));
#913=DIRECTION('',(0.,0.,-1.));
#914=DIRECTION('center_axis',(-1.10521522747907E-16,3.46763768166515E-17,
1.));
#915=DIRECTION('ref_axis',(-1.,0.,0.));
#916=DIRECTION('center_axis',(0.,0.,-1.));
#917=DIRECTION('ref_axis',(-1.,0.,0.));
#918=DIRECTION('',(0.,0.,-1.));
#919=DIRECTION('center_axis',(0.,0.,-1.));
#920=DIRECTION('ref_axis',(-1.,0.,0.));
#921=DIRECTION('',(0.,0.,-1.));
#922=DIRECTION('center_axis',(-1.10521522747907E-16,3.46763768166515E-17,
1.));
#923=DIRECTION('ref_axis',(-1.,0.,0.));
#924=DIRECTION('center_axis',(0.,0.,1.));
#925=DIRECTION('ref_axis',(1.,0.,0.));
#926=DIRECTION('',(0.,0.,1.));
#927=DIRECTION('center_axis',(0.,0.,-1.));
#928=DIRECTION('ref_axis',(1.,0.,0.));
#929=DIRECTION('center_axis',(0.,0.,1.));
#930=DIRECTION('ref_axis',(1.,0.,0.));
#931=DIRECTION('',(0.,0.,1.));
#932=DIRECTION('center_axis',(0.,0.,-1.));
#933=DIRECTION('ref_axis',(-1.,0.,0.));
#934=DIRECTION('center_axis',(0.,0.,-1.));
#935=DIRECTION('ref_axis',(-1.,0.,0.));
#936=DIRECTION('',(0.,0.,-1.));
#937=DIRECTION('center_axis',(0.,0.,-1.));
#938=DIRECTION('ref_axis',(-1.,0.,0.));
#939=DIRECTION('center_axis',(0.707106781186548,0.,-0.707106781186548));
#940=DIRECTION('ref_axis',(-0.707106781186547,0.,-0.707106781186547));
#941=DIRECTION('center_axis',(-0.707106781186548,0.,-0.707106781186548));
#942=DIRECTION('ref_axis',(-0.707106781186547,0.,0.707106781186547));
#943=DIRECTION('',(0.,0.,-1.));
#944=DIRECTION('center_axis',(-0.707106781186548,0.,-0.707106781186548));
#945=DIRECTION('ref_axis',(-0.707106781186547,0.,0.707106781186547));
#946=DIRECTION('center_axis',(0.,0.,-1.));
#947=DIRECTION('ref_axis',(-1.,0.,0.));
#948=DIRECTION('center_axis',(0.,0.,-1.));
#949=DIRECTION('ref_axis',(-1.,0.,0.));
#950=DIRECTION('',(0.,0.,-1.));
#951=DIRECTION('center_axis',(-0.707106781186548,0.,0.707106781186548));
#952=DIRECTION('ref_axis',(-0.707106781186547,0.,-0.707106781186547));
#953=DIRECTION('center_axis',(0.707106781186548,0.,0.707106781186548));
#954=DIRECTION('ref_axis',(-0.707106781186547,0.,0.707106781186547));
#955=DIRECTION('center_axis',(-0.707106781186548,0.,0.707106781186548));
#956=DIRECTION('ref_axis',(-0.707106781186547,0.,-0.707106781186547));
#957=DIRECTION('center_axis',(0.,0.,-1.));
#958=DIRECTION('ref_axis',(-1.,0.,0.));
#959=DIRECTION('center_axis',(0.707106781186548,0.,-0.707106781186548));
#960=DIRECTION('ref_axis',(-0.707106781186547,0.,-0.707106781186547));
#961=DIRECTION('center_axis',(-0.707106781186548,0.,-0.707106781186548));
#962=DIRECTION('ref_axis',(-0.707106781186547,0.,0.707106781186547));
#963=DIRECTION('',(0.,0.,-1.));
#964=DIRECTION('center_axis',(-0.707106781186548,0.,-0.707106781186548));
#965=DIRECTION('ref_axis',(-0.707106781186547,0.,0.707106781186547));
#966=DIRECTION('center_axis',(0.,0.,-1.));
#967=DIRECTION('ref_axis',(-1.,0.,0.));
#968=DIRECTION('center_axis',(0.,0.,-1.));
#969=DIRECTION('ref_axis',(-1.,0.,0.));
#970=DIRECTION('',(0.,0.,-1.));
#971=DIRECTION('center_axis',(-0.707106781186548,0.,0.707106781186548));
#972=DIRECTION('ref_axis',(-0.707106781186547,0.,-0.707106781186547));
#973=DIRECTION('center_axis',(0.707106781186548,0.,0.707106781186548));
#974=DIRECTION('ref_axis',(-0.707106781186547,0.,0.707106781186547));
#975=DIRECTION('center_axis',(-0.707106781186548,0.,0.707106781186548));
#976=DIRECTION('ref_axis',(-0.707106781186547,0.,-0.707106781186547));
#977=DIRECTION('center_axis',(1.,0.,0.));
#978=DIRECTION('ref_axis',(0.,-1.,0.));
#979=DIRECTION('',(1.,0.,0.));
#980=DIRECTION('center_axis',(-1.,-3.35106863855932E-32,0.));
#981=DIRECTION('ref_axis',(0.,-1.,0.));
#982=DIRECTION('center_axis',(1.,0.,0.));
#983=DIRECTION('ref_axis',(0.,-1.,0.));
#984=DIRECTION('',(1.,0.,0.));
#985=DIRECTION('center_axis',(0.,1.,0.));
#986=DIRECTION('ref_axis',(1.,0.,0.));
#987=DIRECTION('center_axis',(-4.62223178726316E-33,1.,0.));
#988=DIRECTION('ref_axis',(1.,0.,0.));
#989=DIRECTION('',(0.,1.,0.));
#990=DIRECTION('center_axis',(4.62223178726316E-33,-1.,0.));
#991=DIRECTION('ref_axis',(1.,0.,0.));
#992=DIRECTION('center_axis',(0.,0.,1.));
#993=DIRECTION('ref_axis',(1.,0.,0.));
#994=DIRECTION('center_axis',(-1.10521522747907E-16,3.46763768166515E-17,
1.));
#995=DIRECTION('ref_axis',(1.,0.,0.));
#996=DIRECTION('',(0.,0.,1.));
#997=DIRECTION('center_axis',(1.,0.,0.));
#998=DIRECTION('ref_axis',(0.,-1.,0.));
#999=DIRECTION('center_axis',(1.,3.35106863855932E-32,0.));
#1000=DIRECTION('ref_axis',(0.,-1.,0.));
#1001=DIRECTION('',(1.,0.,0.));
#1002=DIRECTION('center_axis',(-4.62223178726316E-33,1.,0.));
#1003=DIRECTION('ref_axis',(-1.,-4.62223178726316E-33,-1.10521522747906E-16));
#1004=DIRECTION('',(-1.,-4.62223178726316E-33,-1.10521522747906E-16));
#1005=DIRECTION('',(0.,0.,1.));
#1006=DIRECTION('',(-1.,-4.62223178726316E-33,-1.10521522747906E-16));
#1007=DIRECTION('',(0.,0.,1.));
#1008=DIRECTION('center_axis',(1.,3.35106863855932E-32,0.));
#1009=DIRECTION('ref_axis',(-3.35106863855932E-32,1.,2.61383067117372E-16));
#1010=DIRECTION('',(-3.35106863855932E-32,1.,2.61383067117372E-16));
#1011=DIRECTION('',(-3.35106863855932E-32,1.,2.61383067117372E-16));
#1012=DIRECTION('',(0.,0.,1.));
#1013=DIRECTION('center_axis',(4.62223178726316E-33,-1.,0.));
#1014=DIRECTION('ref_axis',(1.,4.62223178726316E-33,1.10521522747906E-16));
#1015=DIRECTION('',(1.,4.62223178726316E-33,1.10521522747906E-16));
#1016=DIRECTION('',(1.,4.62223178726316E-33,1.10521522747906E-16));
#1017=DIRECTION('',(0.,0.,1.));
#1018=DIRECTION('center_axis',(-1.,-3.35106863855932E-32,0.));
#1019=DIRECTION('ref_axis',(3.35106863855932E-32,-1.,-2.61383067117372E-16));
#1020=DIRECTION('',(3.35106863855932E-32,-1.,-2.61383067117372E-16));
#1021=DIRECTION('',(3.35106863855932E-32,-1.,-2.61383067117372E-16));
#1022=DIRECTION('center_axis',(0.,0.,1.));
#1023=DIRECTION('ref_axis',(1.,0.,0.));
#1024=DIRECTION('center_axis',(-1.10521522747907E-16,3.46763768166515E-17,
1.));
#1025=DIRECTION('ref_axis',(-1.,-4.62223178726318E-33,-1.10521522747907E-16));
#1026=CARTESIAN_POINT('',(0.,0.,0.));
#1027=CARTESIAN_POINT('Origin',(-82.8000000000006,113.25,-5.0000000000001));
#1028=CARTESIAN_POINT('',(-86.3000000000006,114.75,-5.0000000000001));
#1029=CARTESIAN_POINT('',(-87.8000000000006,113.25,-6.50000000000011));
#1030=CARTESIAN_POINT('Origin',(-86.3000000000006,113.25,-5.0000000000001));
#1031=CARTESIAN_POINT('',(-87.8000000000006,113.25,-3.5000000000001));
#1032=CARTESIAN_POINT('Origin',(-86.3000000000006,113.25,-5.0000000000001));
#1033=CARTESIAN_POINT('',(-86.3000000000006,111.75,-5.0000000000001));
#1034=CARTESIAN_POINT('Origin',(-86.3000000000006,113.25,-5.0000000000001));
#1035=CARTESIAN_POINT('',(-94.3000000000006,111.75,-5.0000000000001));
#1036=CARTESIAN_POINT('',(-82.8000000000006,111.75,-5.0000000000001));
#1037=CARTESIAN_POINT('',(-92.8000000000006,113.25,-3.5000000000001));
#1038=CARTESIAN_POINT('Origin',(-94.3000000000006,113.25,-5.0000000000001));
#1039=CARTESIAN_POINT('',(-94.3000000000006,114.75,-5.0000000000001));
#1040=CARTESIAN_POINT('Origin',(-94.3000000000006,113.25,-5.0000000000001));
#1041=CARTESIAN_POINT('',(-92.8000000000006,113.25,-6.50000000000011));
#1042=CARTESIAN_POINT('Origin',(-94.3000000000006,113.25,-5.0000000000001));
#1043=CARTESIAN_POINT('Origin',(-94.3000000000006,113.25,-5.0000000000001));
#1044=CARTESIAN_POINT('Origin',(-86.3000000000006,113.25,-5.0000000000001));
#1045=CARTESIAN_POINT('Origin',(-82.8000000000006,113.25,-5.0000000000001));
#1046=CARTESIAN_POINT('Origin',(-94.3000000000006,113.25,-5.0000000000001));
#1047=CARTESIAN_POINT('',(-97.8000000000006,111.75,-5.0000000000001));
#1048=CARTESIAN_POINT('',(-82.8000000000006,111.75,-5.0000000000001));
#1049=CARTESIAN_POINT('Origin',(-97.8000000000006,113.25,-5.0000000000001));
#1050=CARTESIAN_POINT('Origin',(-94.3000000000006,113.25,-5.0000000000001));
#1051=CARTESIAN_POINT('Origin',(-82.8000000000006,113.25,-5.0000000000001));
#1052=CARTESIAN_POINT('',(-82.8000000000006,111.75,-5.0000000000001));
#1053=CARTESIAN_POINT('Origin',(-82.8000000000006,113.25,-5.0000000000001));
#1054=CARTESIAN_POINT('',(-82.8000000000006,111.75,-5.0000000000001));
#1055=CARTESIAN_POINT('Origin',(-86.3000000000006,113.25,-5.0000000000001));
#1056=CARTESIAN_POINT('Origin',(-86.3000000000006,113.25,-5.0000000000001));
#1057=CARTESIAN_POINT('Origin',(-82.8000000000006,105.25,-5.0000000000001));
#1058=CARTESIAN_POINT('',(-86.3000000000006,103.75,-5.0000000000001));
#1059=CARTESIAN_POINT('',(-86.3000000000006,106.75,-5.0000000000001));
#1060=CARTESIAN_POINT('Origin',(-86.3000000000006,105.25,-5.0000000000001));
#1061=CARTESIAN_POINT('',(-94.3000000000006,103.75,-5.0000000000001));
#1062=CARTESIAN_POINT('',(-82.8000000000006,103.75,-5.0000000000001));
#1063=CARTESIAN_POINT('',(-92.8000000000006,105.25,-3.5000000000001));
#1064=CARTESIAN_POINT('Origin',(-94.3000000000006,105.25,-5.0000000000001));
#1065=CARTESIAN_POINT('',(-94.3000000000006,106.75,-5.0000000000001));
#1066=CARTESIAN_POINT('Origin',(-94.3000000000006,105.25,-5.0000000000001));
#1067=CARTESIAN_POINT('',(-92.8000000000006,105.25,-6.50000000000011));
#1068=CARTESIAN_POINT('Origin',(-94.3000000000006,105.25,-5.0000000000001));
#1069=CARTESIAN_POINT('Origin',(-94.3000000000006,105.25,-5.0000000000001));
#1070=CARTESIAN_POINT('Origin',(-86.3000000000006,105.25,-5.0000000000001));
#1071=CARTESIAN_POINT('Origin',(-82.8000000000006,105.25,-5.0000000000001));
#1072=CARTESIAN_POINT('Origin',(-94.3000000000006,105.25,-5.0000000000001));
#1073=CARTESIAN_POINT('',(-97.8000000000006,103.75,-5.0000000000001));
#1074=CARTESIAN_POINT('',(-82.8000000000006,103.75,-5.0000000000001));
#1075=CARTESIAN_POINT('Origin',(-97.8000000000006,105.25,-5.0000000000001));
#1076=CARTESIAN_POINT('Origin',(-94.3000000000006,105.25,-5.0000000000001));
#1077=CARTESIAN_POINT('Origin',(-82.8000000000006,105.25,-5.0000000000001));
#1078=CARTESIAN_POINT('',(-82.8000000000006,103.75,-5.0000000000001));
#1079=CARTESIAN_POINT('Origin',(-82.8000000000006,105.25,-5.0000000000001));
#1080=CARTESIAN_POINT('',(-82.8000000000006,103.75,-5.0000000000001));
#1081=CARTESIAN_POINT('',(-84.8000000000006,105.25,-3.5000000000001));
#1082=CARTESIAN_POINT('Origin',(-86.3000000000006,105.25,-5.0000000000001));
#1083=CARTESIAN_POINT('Origin',(-86.3000000000006,105.25,-5.0000000000001));
#1084=CARTESIAN_POINT('',(-84.8000000000006,105.25,-6.50000000000011));
#1085=CARTESIAN_POINT('Origin',(-86.3000000000006,105.25,-5.0000000000001));
#1086=CARTESIAN_POINT('Origin',(-86.3000000000006,105.25,-5.0000000000001));
#1087=CARTESIAN_POINT('Origin',(-82.8000000000006,113.25,2.9999999999999));
#1088=CARTESIAN_POINT('',(-86.3000000000006,114.75,2.9999999999999));
#1089=CARTESIAN_POINT('',(-87.8000000000006,113.25,1.49999999999989));
#1090=CARTESIAN_POINT('Origin',(-86.3000000000006,113.25,2.9999999999999));
#1091=CARTESIAN_POINT('',(-87.8000000000006,113.25,4.4999999999999));
#1092=CARTESIAN_POINT('Origin',(-86.3000000000006,113.25,2.9999999999999));
#1093=CARTESIAN_POINT('',(-86.3000000000006,111.75,2.9999999999999));
#1094=CARTESIAN_POINT('Origin',(-86.3000000000006,113.25,2.9999999999999));
#1095=CARTESIAN_POINT('',(-94.3000000000006,111.75,2.9999999999999));
#1096=CARTESIAN_POINT('',(-82.8000000000006,111.75,2.9999999999999));
#1097=CARTESIAN_POINT('',(-92.8000000000006,113.25,4.4999999999999));
#1098=CARTESIAN_POINT('Origin',(-94.3000000000006,113.25,2.9999999999999));
#1099=CARTESIAN_POINT('',(-94.3000000000006,114.75,2.9999999999999));
#1100=CARTESIAN_POINT('Origin',(-94.3000000000006,113.25,2.9999999999999));
#1101=CARTESIAN_POINT('',(-92.8000000000006,113.25,1.49999999999989));
#1102=CARTESIAN_POINT('Origin',(-94.3000000000006,113.25,2.9999999999999));
#1103=CARTESIAN_POINT('Origin',(-94.3000000000006,113.25,2.9999999999999));
#1104=CARTESIAN_POINT('Origin',(-86.3000000000006,113.25,2.9999999999999));
#1105=CARTESIAN_POINT('Origin',(-82.8000000000006,113.25,2.9999999999999));
#1106=CARTESIAN_POINT('Origin',(-94.3000000000006,113.25,2.9999999999999));
#1107=CARTESIAN_POINT('',(-97.8000000000006,111.75,2.9999999999999));
#1108=CARTESIAN_POINT('',(-82.8000000000006,111.75,2.9999999999999));
#1109=CARTESIAN_POINT('Origin',(-97.8000000000006,113.25,2.9999999999999));
#1110=CARTESIAN_POINT('Origin',(-94.3000000000006,113.25,2.9999999999999));
#1111=CARTESIAN_POINT('Origin',(-82.8000000000006,113.25,2.9999999999999));
#1112=CARTESIAN_POINT('',(-82.8000000000006,111.75,2.9999999999999));
#1113=CARTESIAN_POINT('Origin',(-82.8000000000006,113.25,2.9999999999999));
#1114=CARTESIAN_POINT('',(-82.8000000000006,111.75,2.9999999999999));
#1115=CARTESIAN_POINT('Origin',(-86.3000000000006,113.25,2.9999999999999));
#1116=CARTESIAN_POINT('Origin',(-86.3000000000006,113.25,2.9999999999999));
#1117=CARTESIAN_POINT('Origin',(-94.3000000000006,105.25,6.4999999999999));
#1118=CARTESIAN_POINT('',(-92.8000000000006,105.25,-8.5000000000001));
#1119=CARTESIAN_POINT('',(-92.8000000000006,105.25,6.4999999999999));
#1120=CARTESIAN_POINT('Origin',(-94.3000000000006,105.25,-8.5000000000001));
#1121=CARTESIAN_POINT('Origin',(-86.3000000000006,105.25,6.4999999999999));
#1122=CARTESIAN_POINT('',(-84.8000000000006,105.25,-8.5000000000001));
#1123=CARTESIAN_POINT('',(-84.8000000000006,105.25,6.4999999999999));
#1124=CARTESIAN_POINT('Origin',(-86.3000000000006,105.25,-8.5000000000001));
#1125=CARTESIAN_POINT('Origin',(-94.3000000000006,113.25,6.4999999999999));
#1126=CARTESIAN_POINT('',(-92.8000000000006,113.25,6.4999999999999));
#1127=CARTESIAN_POINT('Origin',(-94.3000000000006,113.25,6.4999999999999));
#1128=CARTESIAN_POINT('',(-92.8000000000006,113.25,-8.5000000000001));
#1129=CARTESIAN_POINT('',(-92.8000000000006,113.25,6.4999999999999));
#1130=CARTESIAN_POINT('Origin',(-94.3000000000006,113.25,-8.5000000000001));
#1131=CARTESIAN_POINT('Origin',(-86.3000000000006,113.25,-8.5000000000001));
#1132=CARTESIAN_POINT('',(-87.8000000000006,113.25,6.4999999999999));
#1133=CARTESIAN_POINT('',(-87.8000000000006,113.25,-8.5000000000001));
#1134=CARTESIAN_POINT('Origin',(-86.3000000000006,113.25,6.4999999999999));
#1135=CARTESIAN_POINT('Origin',(-86.3000000000006,113.25,-8.5000000000001));
#1136=CARTESIAN_POINT('',(-87.8000000000006,113.25,-8.5000000000001));
#1137=CARTESIAN_POINT('Origin',(-94.3000000000006,113.25,6.4999999999999));
#1138=CARTESIAN_POINT('',(-92.8000000000006,113.25,6.4999999999999));
#1139=CARTESIAN_POINT('Origin',(-94.3000000000006,113.25,6.4999999999999));
#1140=CARTESIAN_POINT('',(-92.8000000000006,113.25,6.4999999999999));
#1141=CARTESIAN_POINT('Origin',(-94.3000000000006,105.25,6.4999999999999));
#1142=CARTESIAN_POINT('',(-94.3000000000006,103.75,2.9999999999999));
#1143=CARTESIAN_POINT('',(-94.3000000000006,106.75,2.9999999999999));
#1144=CARTESIAN_POINT('Origin',(-94.3000000000006,105.25,2.9999999999999));
#1145=CARTESIAN_POINT('',(-92.8000000000006,105.25,1.49999999999989));
#1146=CARTESIAN_POINT('Origin',(-94.3000000000006,105.25,2.9999999999999));
#1147=CARTESIAN_POINT('',(-92.8000000000006,105.25,6.4999999999999));
#1148=CARTESIAN_POINT('Origin',(-94.3000000000006,105.25,2.9999999999999));
#1149=CARTESIAN_POINT('Origin',(-94.3000000000006,105.25,6.4999999999999));
#1150=CARTESIAN_POINT('',(-92.8000000000006,105.25,6.4999999999999));
#1151=CARTESIAN_POINT('Origin',(-94.3000000000006,105.25,6.4999999999999));
#1152=CARTESIAN_POINT('',(-92.8000000000006,105.25,4.4999999999999));
#1153=CARTESIAN_POINT('',(-92.8000000000006,105.25,6.4999999999999));
#1154=CARTESIAN_POINT('Origin',(-94.3000000000006,105.25,2.9999999999999));
#1155=CARTESIAN_POINT('Origin',(-94.3000000000006,105.25,2.9999999999999));
#1156=CARTESIAN_POINT('Origin',(-94.3000000000006,105.25,2.9999999999999));
#1157=CARTESIAN_POINT('Origin',(-86.3000000000006,105.25,6.4999999999999));
#1158=CARTESIAN_POINT('',(-86.3000000000006,103.75,2.9999999999999));
#1159=CARTESIAN_POINT('',(-86.3000000000006,106.75,2.9999999999999));
#1160=CARTESIAN_POINT('Origin',(-86.3000000000006,105.25,2.9999999999999));
#1161=CARTESIAN_POINT('',(-84.8000000000006,105.25,1.49999999999989));
#1162=CARTESIAN_POINT('Origin',(-86.3000000000006,105.25,2.9999999999999));
#1163=CARTESIAN_POINT('',(-84.8000000000006,105.25,6.4999999999999));
#1164=CARTESIAN_POINT('Origin',(-86.3000000000006,105.25,2.9999999999999));
#1165=CARTESIAN_POINT('Origin',(-86.3000000000006,105.25,6.4999999999999));
#1166=CARTESIAN_POINT('',(-84.8000000000006,105.25,6.4999999999999));
#1167=CARTESIAN_POINT('Origin',(-86.3000000000006,105.25,6.4999999999999));
#1168=CARTESIAN_POINT('',(-84.8000000000006,105.25,4.4999999999999));
#1169=CARTESIAN_POINT('',(-84.8000000000006,105.25,6.4999999999999));
#1170=CARTESIAN_POINT('Origin',(-86.3000000000006,105.25,2.9999999999999));
#1171=CARTESIAN_POINT('Origin',(-86.3000000000006,105.25,2.9999999999999));
#1172=CARTESIAN_POINT('Origin',(-86.3000000000006,105.25,2.9999999999999));
#1173=CARTESIAN_POINT('Origin',(-97.8000000000006,105.25,2.9999999999999));
#1174=CARTESIAN_POINT('',(-82.8000000000006,106.75,2.9999999999999));
#1175=CARTESIAN_POINT('',(-97.8000000000006,106.75,2.9999999999999));
#1176=CARTESIAN_POINT('Origin',(-82.8000000000006,105.25,2.9999999999999));
#1177=CARTESIAN_POINT('Origin',(-97.8000000000006,105.25,2.9999999999999));
#1178=CARTESIAN_POINT('',(-97.8000000000006,106.75,2.9999999999999));
#1179=CARTESIAN_POINT('Origin',(-90.3000000000006,101.75,-1.0000000000001));
#1180=CARTESIAN_POINT('',(-91.8000000000006,101.75,-1.0000000000001));
#1181=CARTESIAN_POINT('Origin',(-90.3000000000006,101.75,-1.0000000000001));
#1182=CARTESIAN_POINT('',(-91.8000000000006,116.75,-1.0000000000001));
#1183=CARTESIAN_POINT('',(-91.8000000000006,101.75,-1.0000000000001));
#1184=CARTESIAN_POINT('Origin',(-90.3000000000006,116.75,-1.0000000000001));
#1185=CARTESIAN_POINT('Origin',(-86.3000000000006,113.25,-8.5000000000001));
#1186=CARTESIAN_POINT('',(-87.8000000000006,113.25,-8.5000000000001));
#1187=CARTESIAN_POINT('Origin',(-86.3000000000006,113.25,-8.5000000000001));
#1188=CARTESIAN_POINT('',(-87.8000000000006,113.25,-8.5000000000001));
#1189=CARTESIAN_POINT('Origin',(-97.8000000000006,105.25,2.9999999999999));
#1190=CARTESIAN_POINT('',(-97.8000000000006,106.75,2.9999999999999));
#1191=CARTESIAN_POINT('Origin',(-97.8000000000006,105.25,2.9999999999999));
#1192=CARTESIAN_POINT('',(-97.8000000000006,106.75,2.9999999999999));
#1193=CARTESIAN_POINT('Origin',(-82.8000000000006,116.75,-8.5000000000001));
#1194=CARTESIAN_POINT('',(-82.8000000000006,116.75,-8.5000000000001));
#1195=CARTESIAN_POINT('',(-97.8000000000006,116.75,-8.5000000000001));
#1196=CARTESIAN_POINT('',(-82.8000000000006,116.75,-8.5000000000001));
#1197=CARTESIAN_POINT('',(-97.8000000000006,116.75,6.4999999999999));
#1198=CARTESIAN_POINT('',(-97.8000000000006,116.75,-8.5000000000001));
#1199=CARTESIAN_POINT('',(-82.8000000000006,116.75,6.4999999999999));
#1200=CARTESIAN_POINT('',(-82.8000000000006,116.75,6.4999999999999));
#1201=CARTESIAN_POINT('',(-82.8000000000006,116.75,-8.5000000000001));
#1202=CARTESIAN_POINT('Origin',(-82.8000000000006,101.75,-8.5000000000001));
#1203=CARTESIAN_POINT('',(-82.8000000000006,101.75,-8.5000000000001));
#1204=CARTESIAN_POINT('',(-82.8000000000006,101.75,-8.5000000000001));
#1205=CARTESIAN_POINT('',(-82.8000000000006,101.75,6.4999999999999));
#1206=CARTESIAN_POINT('',(-82.8000000000006,101.75,6.4999999999999));
#1207=CARTESIAN_POINT('',(-82.8000000000006,101.75,-8.5000000000001));
#1208=CARTESIAN_POINT('Origin',(-97.8000000000006,101.75,-8.5000000000001));
#1209=CARTESIAN_POINT('',(-97.8000000000006,101.75,-8.5000000000001));
#1210=CARTESIAN_POINT('',(-97.8000000000006,101.75,-8.5000000000001));
#1211=CARTESIAN_POINT('',(-97.8000000000006,101.75,6.4999999999999));
#1212=CARTESIAN_POINT('',(-97.8000000000006,101.75,6.4999999999999));
#1213=CARTESIAN_POINT('',(-97.8000000000006,101.75,-8.5000000000001));
#1214=CARTESIAN_POINT('Origin',(-97.8000000000006,116.75,-8.5000000000001));
#1215=CARTESIAN_POINT('',(-97.8000000000006,116.75,-8.5000000000001));
#1216=CARTESIAN_POINT('',(-97.8000000000006,116.75,6.4999999999999));
#1217=CARTESIAN_POINT('Origin',(-90.3000000000006,109.25,6.4999999999999));
#1218=CARTESIAN_POINT('Origin',(-90.3000000000006,109.25,-8.5000000000001));
#1219=UNCERTAINTY_MEASURE_WITH_UNIT(LENGTH_MEASURE(0.01),#1223,
'DISTANCE_ACCURACY_VALUE',
'Maximum model space distance between geometric entities at asserted c
onnectivities');
#1220=UNCERTAINTY_MEASURE_WITH_UNIT(LENGTH_MEASURE(0.01),#1223,
'DISTANCE_ACCURACY_VALUE',
'Maximum model space distance between geometric entities at asserted c
onnectivities');
#1221=(
GEOMETRIC_REPRESENTATION_CONTEXT(3)
GLOBAL_UNCERTAINTY_ASSIGNED_CONTEXT((#1219))
GLOBAL_UNIT_ASSIGNED_CONTEXT((#1223,#1225,#1226))
REPRESENTATION_CONTEXT('','3D')
);
#1222=(
GEOMETRIC_REPRESENTATION_CONTEXT(3)
GLOBAL_UNCERTAINTY_ASSIGNED_CONTEXT((#1220))
GLOBAL_UNIT_ASSIGNED_CONTEXT((#1223,#1225,#1226))
REPRESENTATION_CONTEXT('','3D')
);
#1223=(
LENGTH_UNIT()
NAMED_UNIT(*)
SI_UNIT(.MILLI.,.METRE.)
);
#1224=(
LENGTH_UNIT()
NAMED_UNIT(*)
SI_UNIT($,.METRE.)
);
#1225=(
NAMED_UNIT(*)
PLANE_ANGLE_UNIT()
SI_UNIT($,.RADIAN.)
);
#1226=(
NAMED_UNIT(*)
SI_UNIT($,.STERADIAN.)
SOLID_ANGLE_UNIT()
);
#1227=SHAPE_DEFINITION_REPRESENTATION(#1228,#1229);
#1228=PRODUCT_DEFINITION_SHAPE('',$,#1231);
#1229=SHAPE_REPRESENTATION('',(#695),#1221);
#1230=PRODUCT_DEFINITION_CONTEXT('part definition',#1235,'design');
#1231=PRODUCT_DEFINITION('2026-07-27-19-50-49-397','FusionComponent',#1232,
#1230);
#1232=PRODUCT_DEFINITION_FORMATION('',$,#1237);
#1233=PRODUCT_RELATED_PRODUCT_CATEGORY('FusionComponent',
'FusionComponent',(#1237));
#1234=APPLICATION_PROTOCOL_DEFINITION('international standard',
'automotive_design',2009,#1235);
#1235=APPLICATION_CONTEXT(
'Core Data for Automotive Mechanical Design Process');
#1236=PRODUCT_CONTEXT('part definition',#1235,'mechanical');
#1237=PRODUCT('2026-07-27-19-50-49-397','FusionComponent',$,(#1236));
#1238=PRESENTATION_STYLE_ASSIGNMENT((#1239));
#1239=SURFACE_STYLE_USAGE(.BOTH.,#1240);
#1240=SURFACE_SIDE_STYLE('',(#1241));
#1241=SURFACE_STYLE_FILL_AREA(#1242);
#1242=FILL_AREA_STYLE('Steel - Satin',(#1243));
#1243=FILL_AREA_STYLE_COLOUR('Steel - Satin',#1244);
#1244=COLOUR_RGB('Steel - Satin',0.627450980392157,0.627450980392157,0.627450980392157);
ENDSEC;
END-ISO-10303-21;
